<?xml version="1.0" encoding="utf-8"?>
<!-- Generator: Adobe Illustrator 19.2.0, SVG Export Plug-In . SVG Version: 6.00 Build 0)  -->
<svg version="1.1" id="Слой_1" xmlns="http://www.w3.org/2000/svg" xmlns:xlink="http://www.w3.org/1999/xlink" x="0px" y="0px"
	 viewBox="0 0 529.3 140" style="enable-background:new 0 0 529.3 140;" xml:space="preserve">
<style type="text/css">
	.st0{fill:none;stroke:#FFFFFF;stroke-width:2;stroke-miterlimit:10;}
	.st1{fill:none;stroke:#FFFFFF;stroke-width:5;stroke-miterlimit:10;}
</style>
<path class="st0" d="M134.5,106.1c16,3,18.5,10,8,9.7c-6.3-0.2-12.9-2-28.1-0.6c-13.5,1.3-14.9,5.1-13.8,8.8
	c2.7,9,27.4-4.5,30.4,7.2"/>
<line class="st0" x1="103.4" y1="69.6" x2="75.6" y2="64.2"/>
<line class="st0" x1="144.5" y1="72.4" x2="171.5" y2="65.1"/>
<line class="st0" x1="143.5" y1="82.6" x2="166.9" y2="92.3"/>
<line class="st0" x1="143.5" y1="77" x2="173.1" y2="80"/>
<line class="st0" x1="75.2" y1="79" x2="103.2" y2="75.1"/>
<line class="st0" x1="83.6" y1="92.2" x2="102.2" y2="82"/>
<path class="st0" d="M145.4,42.7c8.3-9.8,15.2-7,17.4-6.9L153,56.5"/>
<path class="st1" d="M81.9,191.1"/>
<path class="st0" d="M90.1,176.6"/>
<path class="st0" d="M101.2,40.9C95.1,33.8,83.7,34,83.7,34l9.8,20.8"/>
<path class="st0" d="M102.7,89c8.4,2.1,14.9,5,17.2-0.2c0.9-2-0.3-6.3-0.9-9c-0.3-1.5,8.5-2.4,8-0.4c-0.2,0.8-0.4,1.8-0.6,2.2
	c-1.5,5.1-0.7,7.2-0.7,7.2c0.2,7.9,18.1,0.3,18.1,0.3"/>
<path class="st0" d="M118.7,65.9c-0.8-5.2-9.7-15.2-20.1-6.9"/>
<path class="st0" d="M126.6,66.1c0.8-5,9.8-14.5,20.5-6.6"/>
<path class="st0" d="M267.6,64.6H243c-1.4,0-2.8-0.6-3.6-1.8c-0.9-1.1-1.2-2.6-0.9-4c1.5-6.8,5.7-11.8,11.6-13.7
	c4.8-1.5,10-0.9,14.2,1.7c4.3,2.7,7.2,7.2,8.1,12.4c0.2,1.3-0.2,2.7-1.1,3.7C270.3,64,269,64.6,267.6,64.6z M255.3,44.6
	c-1.8,0-3.5,0.3-5.2,0.8c-5.7,1.8-9.9,6.7-11.4,13.5c-0.3,1.3,0,2.7,0.9,3.8c0.8,1.1,2.1,1.7,3.4,1.7h24.6c1.3,0,2.5-0.6,3.4-1.6
	c0.8-1,1.2-2.3,1-3.5c-0.8-5.1-3.7-9.6-7.9-12.2C261.4,45.4,258.4,44.6,255.3,44.6z"/>
<path class="st0" d="M433.1,65.3h-24.6c-1.4,0-2.8-0.6-3.6-1.8c-0.9-1.1-1.2-2.6-0.9-4c1.5-6.8,5.7-11.8,11.6-13.7
	c4.8-1.5,10-0.9,14.2,1.7c4.3,2.7,7.2,7.2,8.1,12.4c0.2,1.3-0.2,2.7-1.1,3.7C435.8,64.7,434.5,65.3,433.1,65.3z M420.8,45.3
	c-1.8,0-3.5,0.3-5.2,0.8c-5.7,1.8-9.9,6.7-11.4,13.5c-0.3,1.3,0,2.7,0.9,3.8c0.8,1.1,2.1,1.7,3.4,1.7h24.6c1.3,0,2.5-0.6,3.4-1.6
	c0.8-1,1.2-2.3,1-3.5c-0.8-5.1-3.7-9.6-7.9-12.2C426.9,46.1,423.9,45.3,420.8,45.3z"/>
<path id="_контур_x3E_" class="st0" d="M488.7,105.8c1.7,0,3.4,0,5,0.1c1.1,0,1.4-0.4,1.7-1.2c5.6-16.6,11.2-33.1,16.8-49.6
	l5-14.6c0.3-1,0.7-2,1-3l0.4-1.2c-0.9,0-1.9,0-2.8,0c-2.8,0-5.4,0-8,0c0,0-0.1,0-0.1,0c-0.8,0-1.1,0.2-1.4,1
	c-3.4,10.2-6.9,20.6-10.3,30.7l-2.2,6.7c-0.7,2-1.4,4-2.1,6.2l-1.1,3.4l-0.5-1.3c-0.1-0.2-0.1-0.4-0.2-0.5l-2.7-7.8
	c-4.3-12.4-8.5-24.8-12.8-37.2c-0.3-0.9-0.6-1.1-1.5-1.1c-3.4,0-6.8,0-10.1,0c-1.2,0-2.4,0-3.7,0H458l0.1,0.3
	c0.1,0.3,0.2,0.6,0.3,0.9l9.3,26.7c4.7,13.6,9.5,27.3,14.2,40.9c0.2,0.7,0.5,0.9,1.2,0.9C485.1,105.8,486.9,105.8,488.7,105.8z"/>
<path class="st0" d="M418.2,107.8c-4.2,0-8.1-0.7-11.8-2c-8.5-3.1-14.4-9-17.6-17.5c-4.4-11.8-4.3-23.4,0.4-34.6
	c4.2-9.9,11.3-16.1,21.1-18.4c5.9-1.4,11.8-1.4,17.7,0c6,1.4,11,4.7,15,9.8c6.6,8.4,8.3,20,7.7,28l0,0.2h-48c0,0.6,0.1,1.1,0.1,1.7
	c0.1,1.4,0.1,2.7,0.3,4.1c0.5,5,2.2,8.8,5.3,11.9c3.3,3.2,9.4,4.7,14.7,3.6c5.1-1.1,9-4.3,11-9.1c0.8-2,1-2,3-1.7l0.1,0
	c2.8,0.4,5.6,0.8,8.5,1.2l4.2,0.6l-0.1,0.3c-0.3,0.6-0.5,1.3-0.8,1.9c-0.5,1.4-1.1,2.7-1.7,3.9c-5,9-12.7,14.4-23,15.8
	C422.3,107.7,420.2,107.8,418.2,107.8z"/>
<path class="st0" d="M300.4,106.5h1.3c2.6,0,5.3,0,7.9,0c6.4,0,13.1,0,19.7,0c4.4,0,7.9-0.3,11.1-0.7c12.8-1.7,22.7-7.8,29.5-18.4
	c5-7.7,7.5-16.4,7.7-26.5c0.2-12.1-2.5-22.2-8.5-30.9c-7.9-11.6-19-17.6-32.8-17.7c-8.2-0.1-16.5-0.1-24.6-0.1c-3.5,0-7.1,0-10.6,0
	c-0.2,0-0.4,0-0.6,0l-0.1,0V106.5z"/>
<path class="st0" d="M253.2,108.1c-4.6,0-8.7-0.7-12.4-2.2c-9.5-3.8-15.6-11-18.3-21.4c-2.8-10.7-2.3-20.9,1.6-30
	c4.5-10.7,12.1-17.1,22.5-19.1c9.5-1.9,17.4-0.7,24.3,3.5c5.9,3.6,10.1,9.2,12.8,17.2c1.7,5,2.4,10.4,2.3,16.6c0,0.1,0,0.3-0.1,0.5
	c0,0.1,0,0.2-0.1,0.3l0,0.2h-47.9c0.2,6.7,0.4,13,5.9,17.8c3.9,3.4,9.1,4.7,14.1,3.5c5.2-1.2,9.4-4.7,11.5-9.5
	c0.1-0.3,0.3-0.6,0.4-0.9l0.3-0.7l14.8,2l-0.1,0.3c-0.9,3.2-2.2,6-3.9,8.5c-5.6,8.1-13.5,12.6-23.5,13.4
	C255.9,108,254.5,108.1,253.2,108.1z"/>
<path class="st0" d="M170.6,48.4h8.6v1.9c0,3.1,0,6.2,0,9.3c0,8.1,0,16.5,0,24.8c0,2.8,0.2,5.8,0.6,8.7c0.8,6.2,4.2,10.6,10,12.9
	c6.4,2.6,13,1.6,19.6,0.1V94.2c-0.6,0-1.3,0-1.9,0c-1.6,0-3.1,0.1-4.7,0c-5-0.3-7.4-2.3-8.3-6.8c-0.2-1.1-0.3-2-0.3-2.8
	c0-11.6,0-23.2,0-34.8l0-0.6c0-0.2,0-0.3,0.1-0.5c0-0.1,0-0.1,0.1-0.2l0-0.2h13.8V36.4h-14V17.1c0,0-0.1,0-0.1,0c-0.2,0-0.3,0-0.5,0
	c-1.2,0.1-2.5,0.2-3.7,0.3c-2.6,0.2-5.2,0.5-7.8,0.7c-0.6,0-0.6,0.3-0.6,0.8l0,0.6c-0.4,4.6-0.7,9.3-1.1,13.9
	c-0.2,3-0.4,3.1-3.4,3.1h-6.3V48.4z"/>
<path class="st0" d="M121.6,107.6c14.4,0,26.2-8.4,30.8-21.8c2.8-8.1,3.1-16.9,1-25.9c-2.6-11-11.6-24.1-28.8-24.8
	c-14.2-0.6-24.9,5.7-30.9,18.3c-4,8.4-4.9,17.7-2.5,28.3c1.2,5.3,3.6,10.5,7.1,15.2C103.8,103.9,111.4,107.5,121.6,107.6
	L121.6,107.6z"/>
<path class="st0" d="M45.6,61.1L46,62c0.1,0.3,0.2,0.5,0.3,0.8l2.9,6.9c5.3,12.7,10.7,25.8,16,38.8c0.3,0.8,0.7,1.1,1.6,1.1
	c3.9,0,7.9,0,11.8,0l5.6,0l-0.1-0.2c-0.1-0.3-0.2-0.6-0.3-0.8l-1.8-4.3c-7.9-18.9-15.8-37.9-23.6-56.8c-0.3-0.8-0.4-1.4,0.2-2.3
	C64.8,36.6,71,28,77,19.7l2.8-3.9c0.1-0.2,0.2-0.4,0.4-0.6c0,0,0,0,0,0l-4.6,0c-3.6,0-7.4,0-11.1,0c-0.7,0-1.2,0.2-1.7,0.9
	c-2.7,3.7-5.4,7.3-8,11c-2.8,3.8-5.6,7.6-8.4,11.5c-4.6,6.3-9.1,12.6-13.7,18.8l-3.6,4.9c-0.3,0.4-0.6,0.9-0.9,1.4
	c-0.1,0.2-0.3,0.4-0.4,0.7l-0.1,0.1l-0.7-0.2v-49H10.4v94.1H27l0-6c0-5.4,0-10.9,0-16.3c0-0.8,0.3-1.8,0.8-2.4
	c3.7-5,7.5-10,11.2-14.9l2.6-3.4c0.8-1.1,1.7-2.2,2.5-3.3L45.6,61.1z"/>
<path class="st0" d="M315.3,93.2h0.7c1.5,0,3.1,0,4.6,0c3.8,0,7.7,0,11.5,0c2.6,0,4.6-0.2,6.5-0.5c7.5-1.2,13.3-5.6,17.3-13.2
	c2.9-5.5,4.4-11.7,4.5-19c0.1-8.7-1.5-15.9-4.9-22.2c-4.6-8.3-11.1-12.6-19.2-12.7c-4.8-0.1-9.7-0.1-14.4-0.1c-2.1,0-4.1,0-6.2,0
	c-0.1,0-0.2,0-0.4,0l-0.1,0V93.2z"/>
</svg>
